<svg width="131" height="22" viewBox="0 0 131 22" fill="none" xmlns="http://www.w3.org/2000/svg">
<g clip-path="url(#clip0_3_72)">
<path d="M47.3714 10.7069C47.3714 8.22964 45.5823 6.11023 42.8848 6.11023C40.1874 6.11023 38.3433 8.25716 38.3433 10.7069C38.3433 13.1291 40.1324 15.2485 42.8298 15.2485C43.9583 15.2485 44.8391 14.9182 45.6373 14.2851L46.8209 15.3586L47.4815 14.6154L46.2979 13.652C46.986 12.8263 47.3714 11.7803 47.3714 10.7069ZM45.5823 12.9914L43.9583 11.5326L43.2977 12.2758L44.9217 13.6796C44.3712 14.0649 43.6831 14.3401 42.9124 14.3401C40.9031 14.3401 39.4442 12.7162 39.4442 10.6793C39.4442 8.67003 40.9031 7.01855 42.9124 7.01855C44.9217 7.01855 46.3805 8.64251 46.3805 10.6793C46.3805 11.5877 46.1052 12.3859 45.5823 12.9914ZM55.7389 11.3675C55.7389 13.2667 54.7205 14.2851 53.0415 14.2851C51.3625 14.2851 50.3441 13.2116 50.3441 11.3124V6.19281H49.3256V11.3675C49.3256 13.8997 50.8395 15.1934 53.0415 15.1934C55.2435 15.1934 56.7573 13.8447 56.7573 11.2574V6.19281H55.7389V11.3675ZM115.605 14.3401C113.651 14.3401 112.192 12.7162 112.192 10.6793C112.192 8.67003 113.651 7.01855 115.605 7.01855C116.789 7.01855 117.615 7.514 118.413 8.25717L119.073 7.51399C118.165 6.66072 117.229 6.11023 115.605 6.11023C113.018 6.11023 111.119 8.17459 111.119 10.7069C111.119 13.2392 113.018 15.2485 115.55 15.2485C117.174 15.2485 118.193 14.6429 119.101 13.6796L118.44 13.074C117.642 13.8447 116.844 14.3401 115.605 14.3401ZM121.909 14.175V11.0922H126.725V10.1839H121.909V7.15617H127.303V6.24786H120.89V15.1384H127.358V14.175H121.909ZM97.7968 6.27538H94.4938V15.1384H95.5122V12.0005H97.6592C99.5584 12.0005 101.127 10.9821 101.127 9.08291C101.127 7.32132 99.8336 6.27538 97.7968 6.27538ZM100.109 9.13796C100.109 10.3215 99.1455 11.0922 97.6867 11.0922H95.4847V7.21123H97.7418C99.1455 7.15618 100.109 7.8443 100.109 9.13796ZM33.8567 10.1839C31.9025 9.79855 31.4345 9.27559 31.4345 8.44984C31.4345 7.65162 32.1777 7.04608 33.3337 7.04608C34.2421 7.04608 35.0678 7.32132 35.9211 8.00944L36.4716 7.21123C35.5633 6.46806 34.6825 6.13775 33.3888 6.13775C31.7098 6.13775 30.4712 7.15618 30.4712 8.55994C30.4712 10.0188 31.4345 10.7069 33.4438 11.1473C35.288 11.5326 35.7559 12.0005 35.7559 12.8263C35.7559 13.7346 34.9577 14.3401 33.8017 14.3401C32.563 14.3401 31.6547 13.9548 30.7739 13.1015L30.1684 13.8447C31.2419 14.8081 32.3704 15.2485 33.7741 15.2485C35.5082 15.2485 36.8019 14.2301 36.8019 12.7162C36.7193 11.3124 35.811 10.6518 33.8567 10.1839ZM78.9423 11.0922H83.7592V10.1839H78.9423V7.15617H84.3372V6.24786H77.9239V15.1384H84.3922V14.175H78.9423V11.0922ZM89.6219 10.1839C87.6677 9.79855 87.1998 9.27559 87.1998 8.44984C87.1998 7.65162 87.9429 7.04608 89.099 7.04608C90.0073 7.04608 90.833 7.32132 91.6863 8.00944L92.2368 7.21123C91.3285 6.46806 90.4477 6.13775 89.154 6.13775C87.475 6.13775 86.2364 7.15618 86.2364 8.55994C86.2364 10.0188 87.1998 10.7069 89.2091 11.1473C91.0532 11.5326 91.5212 12.0005 91.5212 12.8263C91.5212 13.7346 90.7229 14.3401 89.5669 14.3401C88.3283 14.3401 87.42 13.9548 86.5392 13.1015L85.9336 13.8447C87.0071 14.8081 88.1356 15.2485 89.5394 15.2485C91.2734 15.2485 92.5671 14.2301 92.5671 12.7162C92.4845 11.3124 91.5762 10.6518 89.6219 10.1839ZM62.0972 6.22033L58.051 15.1384H59.0694L60.1429 12.7712H64.9597L65.9781 15.1384H67.0516L63.0055 6.22033H62.0972ZM60.5282 11.8904L62.5375 7.4039L64.5469 11.8904H60.5282ZM105.339 6.22033L101.292 15.1384H102.311L103.384 12.7712H108.201L109.22 15.1384H110.293L106.247 6.22033H105.339ZM103.77 11.8904L105.779 7.4039L107.788 11.8904H103.77ZM75.8045 8.91776C75.8045 8.17459 75.5293 7.56904 75.1439 7.12865C74.5934 6.57815 73.7401 6.22033 72.6116 6.22033H68.7857V15.0833H69.8041V11.6702H72.3364L74.9237 15.0833H76.1623L73.4649 11.4776C74.7861 11.2023 75.8045 10.3766 75.8045 8.91776ZM69.7766 10.7619V7.15617H72.529C73.9328 7.15617 74.7861 7.81677 74.7861 8.89023C74.7861 10.0187 73.8227 10.6793 72.474 10.6793H69.7766V10.7619ZM6.05667 11.7803C6.44202 12.1657 7.13014 12.1657 7.57054 11.7803L14.2591 5.09181C15.1123 4.23855 16.406 4.23855 17.2317 5.09181C17.6171 5.47716 18.3052 5.47716 18.7456 5.09181C19.131 4.70647 19.131 4.01835 18.7456 3.57795C17.1216 1.95399 14.4242 1.95399 12.8002 3.57795L6.05667 10.239C5.61628 10.7069 5.61628 11.3124 6.05667 11.7803ZM16.4335 7.26627C16.8189 6.88092 16.8189 6.1928 16.4335 5.75241C16.0482 5.36706 15.3601 5.36706 14.9197 5.75241L8.25866 12.496C7.40539 13.3493 6.11172 13.3493 5.28598 12.496C4.43271 11.6427 4.43271 10.3491 5.28598 9.52331L11.8644 2.94488C11.0111 2.09161 9.71747 2.09161 8.89173 2.94488L3.82716 8.00944C2.2032 9.63341 2.2032 12.3308 3.82716 13.9548C5.45113 15.5788 8.14856 15.5788 9.77252 13.9548L16.4335 7.26627ZM17.2317 8.00944L10.4882 14.753C10.1028 15.1384 10.1028 15.8265 10.4882 16.2669C10.8735 16.6522 11.5616 16.6522 12.002 16.2669L18.6905 9.57835C19.5438 8.72508 20.8375 8.72508 21.6632 9.57835C22.489 10.4316 22.5165 11.7253 21.6632 12.551L15.0848 19.0744C15.9381 19.9277 17.2317 19.9277 18.0575 19.0744L23.1771 13.9548C24.8011 12.3308 24.8011 9.63341 23.1771 8.00944C21.4981 6.38548 18.8557 6.38548 17.2317 8.00944ZM20.9476 10.239C20.5622 9.85361 19.8741 9.85361 19.4337 10.239L12.7452 16.9825C11.8919 17.8358 10.5983 17.8358 9.77252 16.9825C9.38717 16.5972 8.69905 16.5972 8.25866 16.9825C7.87331 17.3679 7.87331 18.056 8.25866 18.4964C9.88262 20.1204 12.58 20.1204 14.204 18.4964L20.8925 11.8079C21.3329 11.3124 21.3329 10.7069 20.9476 10.239Z" fill="black"/>
</g>
<defs>
<clipPath id="clip0_3_72">
<rect width="130.192" height="21.7446" fill="white"/>
</clipPath>
</defs>
</svg>
